name ./resultDataOpenSim/trcMotMarkerGrf/sub06/grf-01-07.mot
datacolumns 19
datarows 15
range 0.48800000 0.54400000
endheader

                time	     ground_force_vx	     ground_force_vy	     ground_force_vz	     ground_force_px	     ground_force_py	     ground_force_pz	   l_ground_force_vx	   l_ground_force_vy	   l_ground_force_vz	   l_ground_force_px	   l_ground_force_py	   l_ground_force_pz	     ground_torque_x	     ground_torque_y	     ground_torque_z	   l_ground_torque_x	   l_ground_torque_y	   l_ground_torque_z	
          0.48800000	         64.23408066	        531.60912721	        -13.71667673	         -0.77770118	          0.00000000	          0.07089579	          0.00000000	          0.00000000	          0.00000000	          0.00000000	          0.00000000	          0.00000000	          0.00000000	          2.78959899	          0.00000000	          0.00000000	          0.00000000	          0.00000000	
          0.49200000	         69.49626561	        547.97621364	        -15.08225204	         -0.77755336	          0.00000000	          0.07085576	          0.00000000	          0.00000000	          0.00000000	          0.00000000	          0.00000000	          0.00000000	          0.00000000	          2.74791999	          0.00000000	          0.00000000	          0.00000000	          0.00000000	
          0.49600000	         74.73981009	        564.75132308	        -16.51616237	         -0.77736052	          0.00000000	          0.07082940	          0.00000000	          0.00000000	          0.00000000	          0.00000000	          0.00000000	          0.00000000	          0.00000000	          2.69196676	          0.00000000	          0.00000000	          0.00000000	          0.00000000	
          0.50000000	         79.88362690	        581.80342030	        -17.92971917	         -0.77711721	          0.00000000	          0.07080574	          0.00000000	          0.00000000	          0.00000000	          0.00000000	          0.00000000	          0.00000000	          0.00000000	          2.63200575	          0.00000000	          0.00000000	          0.00000000	          0.00000000	
          0.50400000	         84.95183350	        598.99052666	        -19.26021240	         -0.77683050	          0.00000000	          0.07077680	          0.00000000	          0.00000000	          0.00000000	          0.00000000	          0.00000000	          0.00000000	          0.00000000	          2.57453113	          0.00000000	          0.00000000	          0.00000000	          0.00000000	
          0.50800000	         90.05992601	        616.17219754	        -20.47671389	         -0.77652614	          0.00000000	          0.07074024	          0.00000000	          0.00000000	          0.00000000	          0.00000000	          0.00000000	          0.00000000	          0.00000000	          2.52194054	          0.00000000	          0.00000000	          0.00000000	          0.00000000	
          0.51200000	         95.37442927	        633.20926776	        -21.58020952	         -0.77623417	          0.00000000	          0.07069935	          0.00000000	          0.00000000	          0.00000000	          0.00000000	          0.00000000	          0.00000000	          0.00000000	          2.47327167	          0.00000000	          0.00000000	          0.00000000	          0.00000000	
          0.51600000	        101.05703455	        649.96620449	        -22.59601427	         -0.77597157	          0.00000000	          0.07065663	          0.00000000	          0.00000000	          0.00000000	          0.00000000	          0.00000000	          0.00000000	          0.00000000	          2.42555939	          0.00000000	          0.00000000	          0.00000000	          0.00000000	
          0.52000000	        107.21347977	        666.32256489	        -23.55909038	         -0.77574579	          0.00000000	          0.07061573	          0.00000000	          0.00000000	          0.00000000	          0.00000000	          0.00000000	          0.00000000	          0.00000000	          2.37541698	          0.00000000	          0.00000000	          0.00000000	          0.00000000	
          0.52400000	        113.86364945	        682.18027214	        -24.50168118	         -0.77555503	          0.00000000	          0.07058010	          0.00000000	          0.00000000	          0.00000000	          0.00000000	          0.00000000	          0.00000000	          0.00000000	          2.32051962	          0.00000000	          0.00000000	          0.00000000	          0.00000000	
          0.52800000	        120.93723328	        697.44900111	        -25.44650163	         -0.77538139	          0.00000000	          0.07054981	          0.00000000	          0.00000000	          0.00000000	          0.00000000	          0.00000000	          0.00000000	          0.00000000	          2.26068118	          0.00000000	          0.00000000	          0.00000000	          0.00000000	
          0.53200000	        128.29253707	        712.02247160	        -26.40183977	         -0.77519760	          0.00000000	          0.07052211	          0.00000000	          0.00000000	          0.00000000	          0.00000000	          0.00000000	          0.00000000	          0.00000000	          2.19822730	          0.00000000	          0.00000000	          0.00000000	          0.00000000	
          0.53600000	        135.75184685	        725.77731811	        -27.35737181	         -0.77497869	          0.00000000	          0.07049310	          0.00000000	          0.00000000	          0.00000000	          0.00000000	          0.00000000	          0.00000000	          0.00000000	          2.13750465	          0.00000000	          0.00000000	          0.00000000	          0.00000000	
          0.54000000	        143.14188561	        738.58814207	        -28.28197899	         -0.77471017	          0.00000000	          0.07045609	          0.00000000	          0.00000000	          0.00000000	          0.00000000	          0.00000000	          0.00000000	          0.00000000	          2.08365408	          0.00000000	          0.00000000	          0.00000000	          0.00000000	
          0.54400000	        150.32778058	        750.32995747	        -29.12610878	         -0.77438971	          0.00000000	          0.07040617	          0.00000000	          0.00000000	          0.00000000	          0.00000000	          0.00000000	          0.00000000	          0.00000000	          2.04108095	          0.00000000	          0.00000000	          0.00000000	          0.00000000	
